<svg width="22" height="20" viewBox="0 0 22 20" fill="#d9e1cc" xmlns="http://www.w3.org/2000/svg"> <path d="M20.1139 6.68445H18.0677L15.2196 1.31591C15.0659 1.02624 14.7061 0.915728 14.4157 1.06909C14.1254 1.22245 14.0147 1.58164 14.1684 1.87131L16.7219 6.68445H5.52468L8.07817 1.87131C8.23185 1.58164 8.12111 1.22245 7.83084 1.06909C7.54066 0.915768 7.18064 1.02624 7.02697 1.31591L4.1788 6.68445H2.13606C1.50964 6.68445 1 7.19304 1 7.81815V9.13656C1 9.73536 1.4677 10.2269 2.05771 10.2673L4.05291 18.5453C4.11718 18.812 4.35627 19 4.63115 19H17.6149C17.8897 19 18.1287 18.8121 18.1931 18.5456L20.193 10.2672C20.7827 10.2265 21.25 9.73512 21.25 9.13656V7.81815C21.25 7.19304 20.7404 6.68445 20.1139 6.68445ZM2.18946 7.87145H20.0605V9.08322H2.18946V7.87145ZM18.2015 13.4462H15.5976L15.9949 10.2702H18.9687L18.2015 13.4462ZM11.7205 17.813V14.6332H14.2503L13.8525 17.813H11.7205ZM8.39901 17.813L8.00082 14.6332H10.5311V17.813H8.39901ZM3.28183 10.2702H6.2558L6.65351 13.4462H4.04732L3.28183 10.2702ZM7.45446 10.2702H10.5311V13.4462H7.85218L7.45446 10.2702ZM11.7205 13.4462V10.2702H14.7962L14.3989 13.4462H11.7205ZM4.33339 14.6332H6.80212L7.20031 17.813H5.0998L4.33339 14.6332ZM17.1465 17.813H15.0512L15.449 14.6332H17.9147L17.1465 17.813Z" stroke-width="0.6"></path> </svg>