<svg xmlns="http://www.w3.org/2000/svg" width="15" height="17" viewBox="0 0 15 17"><path d="M0.941174 16.5C0.421378 16.5 0 16.0786 0 15.5588V1.44122C0 0.921423 0.421378 0.500022 0.941174 0.500022H6.94586C7.30366 0.497555 7.63192 0.698159 7.79292 1.01769L8.47056 2.38239H13.1764C13.6962 2.38239 14.1176 2.80377 14.1176 3.32357V10.853C14.1176 11.3728 13.6962 11.7941 13.1764 11.7941H8.10351C7.7491 11.7931 7.42534 11.593 7.26586 11.2765L6.58822 9.91179H1.88235V15.5588C1.88235 16.0786 1.46097 16.5 0.941174 16.5ZM8.47056 4.26474V9.91179H12.2353V4.26474H8.47056Z" fill="black"/></svg>